<svg xmlns="http://www.w3.org/2000/svg" width="168" height="168" viewBox="0 0 168 168">
  <g id="Group_170" data-name="Group 170" transform="translate(-161 -1328)">
    <circle id="Ellipse_7" data-name="Ellipse 7" cx="84" cy="84" r="84" transform="translate(161 1328)" fill="#fff"/>
    <g id="Group_119" data-name="Group 119" transform="translate(-86.958 346.293)">
      <g id="Group_117" data-name="Group 117" transform="translate(272.958 1006.707)">
        <circle id="Ellipse_4" data-name="Ellipse 4" cx="40.687" cy="40.687" r="40.687" transform="translate(0 27.534)" fill="#947c4e"/>
        <g id="Out_line" data-name="Out line" transform="translate(24.584)">
          <path id="Path_372" data-name="Path 372" d="M101.368,60.083l-7.46,7.46a6.146,6.146,0,0,1-8.682,0L64.576,46.892a1.967,1.967,0,0,1,0-2.782L92.11,16.576a1.967,1.967,0,0,1,2.782,0l14.343,14.343,7.46-7.46a6.147,6.147,0,0,1,8.682,0l19.26,19.26,4.509-4.509a1.967,1.967,0,0,1,2.782,0l5.9,5.9a1.967,1.967,0,0,1,0,2.782L119.883,84.836l2.543,2.543A1.967,1.967,0,0,1,123,88.77V99.756l1.967,1.967.576-.576a1.968,1.968,0,0,1,2.782,0l29.5,29.5-2.782,2.782-28.11-28.111-18.853,18.853,6.476,6.476-2.782,2.782-7.867-7.867a1.967,1.967,0,0,1,0-2.782l2.543-2.543L95.468,109.252,77.191,127.529a1.967,1.967,0,0,1-2.782,0l-5.9-5.9a1.967,1.967,0,0,1,0-2.782L86.786,100.57l-2.543-2.543a1.967,1.967,0,0,1,0-2.782L99.977,79.512a1.967,1.967,0,0,1,2.782,0l.172.172a10.232,10.232,0,0,1,2.946-6.073,1.968,1.968,0,0,1,2.782,0l2.543,2.543,3.119-3.119Zm-9.426-3.189,1.967,1.967a6.106,6.106,0,0,1,1.268,1.85l3.41-3.409L95.06,53.776a2.205,2.205,0,0,0-3.119,3.119ZM93.5,20.748,68.748,45.5l19.26,19.26a2.205,2.205,0,1,0,3.119-3.119L89.16,59.676a6.14,6.14,0,0,1,0-8.682L106.453,33.7Zm29.094,5.493a2.207,2.207,0,0,0-3.119,0L95.993,49.724a6.112,6.112,0,0,1,1.849,1.27L123,76.155,147.755,51.4Zm27.942,16.141L147.418,45.5l3.119,3.119,3.119-3.119ZM72.681,120.238l3.119,3.119,16.886-16.886-3.119-3.119Zm28.687-36.554L88.415,96.637l7.053,7.053L108.42,90.736l-2.543-2.543h0l0-.005ZM107.486,78a6.387,6.387,0,0,0,1.173,7.411l3.934,3.933a1.967,1.967,0,0,1,0,2.782,9.169,9.169,0,0,0,0,12.952l-2.782,2.782a13.048,13.048,0,0,1-3.825-9.127l-7.736,7.736,10.986,10.986L122.187,104.5l-2.543-2.543a1.967,1.967,0,0,1-.576-1.391V89.584Zm6.5.935,3.119,3.119,3.119-3.119L117.1,75.817Z" transform="translate(-64 -16)"/>
        </g>
      </g>
    </g>
  </g>
</svg>
