<svg xmlns="http://www.w3.org/2000/svg" width="168" height="168" viewBox="0 0 168 168">
  <g id="Group_171" data-name="Group 171" transform="translate(-514 -1317)">
    <circle id="Ellipse_7" data-name="Ellipse 7" cx="84" cy="84" r="84" transform="translate(514 1317)" fill="#fff"/>
    <g id="Group_116" data-name="Group 116" transform="translate(525.766 1355.632)">
      <path id="Path_461" data-name="Path 461" d="M38.21,0A38.21,38.21,0,1,1,0,38.21,38.21,38.21,0,0,1,38.21,0Z" transform="translate(0 7.337)" fill="#947c4e"/>
      <g id="_004-binoculars" data-name="004-binoculars" transform="translate(25.165 0)">
        <path id="Path_374" data-name="Path 374" d="M31,262.437a20.968,20.968,0,1,0,20.968-20.968A20.992,20.992,0,0,0,31,262.437Zm38.473,0a17.505,17.505,0,1,1-17.505-17.505A17.525,17.525,0,0,1,69.473,262.437Z" transform="translate(-23.843 -199.418)"/>
        <path id="Path_375" data-name="Path 375" d="M114.559,107.94c0-.009-.007-.018-.012-.027L100.5,78.795a20.153,20.153,0,0,0-9.031-9.181l-1.326-2.749a13.323,13.323,0,0,0-25.322,5.788v5.115A19.952,19.952,0,0,0,62.5,84.648H56.044a19.952,19.952,0,0,0-2.327-6.88V72.654a13.322,13.322,0,0,0-25.322-5.788l-1.326,2.749a20.155,20.155,0,0,0-9.031,9.181l-2.433,5.043a1.732,1.732,0,1,0,3.119,1.5L21.157,80.3a16.642,16.642,0,0,1,31.631,7.23v21.3a28.165,28.165,0,0,0-6.452-7.913,1.731,1.731,0,0,0-2.243,2.638,24.553,24.553,0,1,1-5.826-3.693,1.732,1.732,0,0,0,1.426-3.156,28.119,28.119,0,0,0-27.719,2.632l3.537-7.333a1.732,1.732,0,1,0-3.119-1.5l-8.4,17.412c0,.009-.007.018-.012.027a28.122,28.122,0,1,0,52.262,14.995H62.3a28.124,28.124,0,1,0,52.262-14.995ZM97.384,80.3l9.183,19.039a28.1,28.1,0,0,0-40.814,9.5V87.529A16.642,16.642,0,0,1,97.384,80.3ZM62.29,119.472H56.251V88.111H62.29ZM78.146,62.794a9.914,9.914,0,0,1,8.643,5.126,20,20,0,0,0-18.5,5.3v-.567a9.87,9.87,0,0,1,9.859-9.859Zm-42,4.63a19.858,19.858,0,0,0-4.394.5,9.856,9.856,0,0,1,18.5,4.733v.567A20.039,20.039,0,0,0,36.146,67.425Zm54.269,79.588a24.662,24.662,0,1,1,24.662-24.662,24.69,24.69,0,0,1-24.662,24.662Z" transform="translate(0 -59.331)"/>
        <path id="Path_376" data-name="Path 376" d="M329.634,243.008a1.732,1.732,0,1,0-1.3,3.208,17.5,17.5,0,1,1-6.6-1.281,1.732,1.732,0,0,0,0-3.463h0a20.98,20.98,0,1,0,7.908,1.536Z" transform="translate(-231.352 -199.42)"/>
      </g>
    </g>
  </g>
</svg>
