<svg xmlns="http://www.w3.org/2000/svg" width="168" height="168" viewBox="0 0 168 168">
  <g id="Group_169" data-name="Group 169" transform="translate(-892 -1317)">
    <circle id="Ellipse_6" data-name="Ellipse 6" cx="84" cy="84" r="84" transform="translate(892 1317)" fill="#fff"/>
    <g id="Group_115" data-name="Group 115" transform="translate(918 1352)">
      <ellipse id="Ellipse_2" data-name="Ellipse 2" cx="38.325" cy="38.21" rx="38.325" ry="38.21" transform="translate(0 13.713)" fill="#947c4e"/>
      <g id="_003-flag" data-name="003-flag" transform="translate(8.773 0)">
        <g id="Group_114" data-name="Group 114" transform="translate(0 0)">
          <path id="Path_373" data-name="Path 373" d="M106.41,115.034,83.939,78.512a3.35,3.35,0,0,0-5.707,0l-2.917,4.742A1.569,1.569,0,0,0,77.987,84.9L80.9,80.156a.214.214,0,0,1,.364,0l22.471,36.522a.213.213,0,0,1-.182.325H91.112L56.306,60.435a3.341,3.341,0,0,0-1.244-1.186h0V48.605a14.5,14.5,0,0,0,3.82.505c3.577,0,6.927-1.243,10.2-2.46,4.541-1.686,8.83-3.278,13.469-1.417a1.94,1.94,0,0,0,2.662-1.8V25.713a1.939,1.939,0,0,0-1.18-1.788c-5.889-2.511-11.051-.6-16.043,1.258-4.677,1.736-9.094,3.376-13.9,1.226a1.568,1.568,0,0,0-2.208,1.432V27.9a1.608,1.608,0,0,0-.042.362V59.25A3.344,3.344,0,0,0,50.6,60.435L34.075,87.291l-5.4-8.779a3.35,3.35,0,0,0-5.707,0L.5,115.034a3.35,3.35,0,0,0,2.853,5.106H103.556a3.35,3.35,0,0,0,2.853-5.106ZM55.022,30.068c5.077,1.393,9.638-.3,14.067-1.944,4.382-1.627,8.533-3.167,12.995-1.6V41.768c-5.093-1.4-9.658.3-14.086,1.942-4.374,1.624-8.522,3.163-12.975,1.6ZM19.477,117l5.381-8.746a1.568,1.568,0,0,0-2.672-1.644L15.794,117H3.35a.213.213,0,0,1-.182-.325L25.639,80.157a.213.213,0,0,1,.363,0l6.231,10.128L26.012,100.4a1.568,1.568,0,0,0,2.672,1.644L53.271,62.078a.213.213,0,0,1,.363,0L87.429,117Z" transform="translate(0 -22.723)"/>
        </g>
      </g>
    </g>
  </g>
</svg>
